<?xml version="1.0" encoding="UTF-8" standalone="no"?>
<!-- Generator: Adobe Adobe Illustrator 24.2.0, SVG Export Plug-In . SVG Version: 6.00 Build 0)  -->

<svg
   version="1.1"
   x="0px"
   y="0px"
   width="1663.1256"
   height="2480"
   viewBox="0 0 1663.1256 2480"
   xml:space="preserve"
   id="svg12347"
   sodipodi:docname="Signals.svg"
   inkscape:version="1.2 (dc2aeda, 2022-05-15)"
   inkscape:export-filename="../Desktop/Signals.svg"
   inkscape:export-xdpi="96"
   inkscape:export-ydpi="96"
   xmlns:inkscape="http://www.inkscape.org/namespaces/inkscape"
   xmlns:sodipodi="http://sodipodi.sourceforge.net/DTD/sodipodi-0.dtd"
   xmlns="http://www.w3.org/2000/svg"
   xmlns:svg="http://www.w3.org/2000/svg"><defs
   id="defs12351"><clipPath
     clipPathUnits="userSpaceOnUse"
     id="clipPath13107"><path
       class="st1"
       d="m 2310.3666,1094.6821 c -0.03,7.7293 -0.04,15.5131 -0.04,23.3514 0,176.3341 -6.5005,315.2982 -32.8227,428.1088 -30.7924,131.9898 -88.7071,228.1819 -195.0756,306.5414 l -14.0012,9.3484 c -129.8404,95.655 -300.3441,182.2731 -578.1664,182.2731 -273.4221,0 -530.35272,-116.6947 -650.05233,-216.8098 -105.92852,-88.603 -141.43138,-152.0254 -162.95311,-265.7855 -21.59173,-114.1572 -27.06217,-268.2063 -27.06217,-443.6764 0,-7.8461 -0.02,-15.6299 -0.05,-23.3514 C 648.77297,790.756 623.14091,580.53902 773.28299,404.50069 893.20262,263.8942 1148.8431,123.66133 1465.4086,113.9238 c 299.4141,-9.20823 567.3357,132.57361 695.776,270.71264 167.3634,180.02364 150.1221,400.3362 149.182,710.04566 z"
       id="path13109"
       style="stroke:none;stroke-width:0.882294" /></clipPath></defs><sodipodi:namedview
   id="namedview12349"
   pagecolor="#ffffff"
   bordercolor="#000000"
   borderopacity="0.25"
   inkscape:showpageshadow="2"
   inkscape:pageopacity="0.0"
   inkscape:pagecheckerboard="0"
   inkscape:deskcolor="#d1d1d1"
   showgrid="false"
   inkscape:zoom="0.19124081"
   inkscape:cx="985.66827"
   inkscape:cy="1511.1837"
   inkscape:window-width="1512"
   inkscape:window-height="836"
   inkscape:window-x="0"
   inkscape:window-y="38"
   inkscape:window-maximized="0"
   inkscape:current-layer="svg12347" />
<style
   type="text/css"
   id="style12274">
	.st0{display:none;}
	.st1{fill:#F15A24;stroke:#000000;stroke-miterlimit:10;}
	.st2{stroke:#000000;stroke-miterlimit:10;}
	.st3{fill:none;stroke:#000000;stroke-width:60;stroke-linecap:round;stroke-miterlimit:10;}
	.st4{fill:none;stroke:#000000;stroke-width:51;stroke-linecap:round;stroke-linejoin:round;stroke-miterlimit:10;}
	.st5{fill:none;stroke:#000000;stroke-width:71;stroke-linecap:round;stroke-miterlimit:10;}
	.st6{fill:none;stroke:#000000;stroke-width:101;stroke-linecap:round;stroke-miterlimit:10;}
	.st7{fill:none;stroke:#000000;stroke-width:149;stroke-linecap:round;stroke-miterlimit:10;}
	.st8{fill:none;stroke:#000000;stroke-width:100;stroke-linecap:round;stroke-miterlimit:10;}
	.st9{fill:none;}
	.st10{fill:#FFFFFF;stroke:#FFFFFF;stroke-width:16;stroke-miterlimit:10;}
	.st11{fill:#F15A24;stroke:#F15A24;stroke-width:67;stroke-miterlimit:10;}
	.st12{fill:#F15A24;}
	.st13{display:none;fill:#FFFFFF;stroke:#000000;stroke-width:67;stroke-miterlimit:10;}
	.st14{fill:#FFFFFF;stroke:#000000;stroke-width:67;stroke-miterlimit:10;}
	.st15{fill:#B32B2B;}
	.st16{fill:#F0A824;}
	.st17{fill:#76B543;}
</style>











<g
   id="g14970"
   inkscape:label="full logo"
   style="display:inline"
   transform="translate(-657.47131)"><g
     id="g13462"
     style="display:inline"><path
       class="st1"
       d="m 2319.6735,1260.269 c -0.03,9.9278 -0.04,19.9256 -0.04,29.9934 0,226.49 -6.4986,404.9806 -32.8128,549.8787 -30.7832,169.5326 -88.6804,293.0854 -195.017,393.7332 l -13.9969,12.0073 C 1948.0054,2368.7445 1777.553,2480 1499.8143,2480 1226.4745,2480 969.62117,2330.1131 849.95755,2201.5214 744.06091,2087.7165 708.56873,2006.2545 687.05348,1860.1367 c -21.58524,-146.6277 -27.05404,-344.494 -27.05404,-569.8743 0,-10.0778 -0.02,-20.0756 -0.05,-29.9934 C 658.57975,869.89504 632.95541,599.88458 783.05231,373.77444 902.93587,193.17427 1158.4995,13.053985 1474.9697,0.5467434 c 299.324,-11.8273924 567.165,170.2824466 695.5667,347.7133266 167.3131,231.22901 150.0769,514.20661 149.1371,912.00893 z"
       id="path12279"
       style="stroke:none;stroke-width:0.99978" /><path
       class="st2"
       d="m 2320.04,1470 c -0.03,9.93 -0.04,19.93 -0.04,30 0,226.54 -6.5,405.07 -32.82,550 l -1602.78,1.02 c 0,0 -34.9,-321.59 -24.4,-551.02 0.46,-10.07 -0.02,-20.08 -0.05,-30 z"
       id="path12282"
       clip-path="url(#clipPath13107)"
       transform="matrix(0.99911391,0,0,1.283685,10.381028,-144.24387)" /></g><g
     id="Layer_10"
     inkscape:label="name"
     transform="matrix(0.81427699,0,0,0.81427699,287.61238,622.17968)"
     style="display:inline">
	<path
   class="st10"
   d="m 715.38,1830.75 40.64,-26.39 c 10.69,19.6 24.6,33.99 49.2,33.99 20.68,0 33.87,-11.6 33.87,-27.59 0,-19.2 -13.55,-25.99 -36.36,-37.19 l -12.48,-6 c -36.01,-17.2 -59.89,-38.79 -59.89,-84.38 0,-41.99 28.52,-73.98 73.08,-73.98 31.73,0 54.55,12.4 70.94,44.79 l -38.86,27.99 c -8.56,-17.2 -17.83,-23.99 -32.09,-23.99 -14.62,0 -23.89,10.4 -23.89,23.99 0,16.8 9.27,23.59 30.66,33.99 l 12.48,6 c 42.42,20.4 66.31,41.19 66.31,87.98 0,50.39 -35.29,77.98 -82.71,77.98 -46.33,0 -76.28,-24.8 -90.9,-57.19 z"
   id="path12306" /><path
   class="st10"
   d="m 941.4,1612.4 h 49.91 v 271.93 H 941.4 Z"
   id="path12308" /><path
   class="st10"
   d="m 1045.14,1748.37 c 0,-80.38 50.62,-139.17 123.71,-139.17 39.57,0 68.09,12 88.06,37.59 l -33.87,37.59 c -12.12,-14 -26.02,-24.79 -54.19,-24.79 -43.85,0 -72.37,37.99 -72.37,88.78 0,50.79 29.23,89.58 80.21,89.58 15.69,0 34.94,-3.2 47.42,-10 v -39.99 h -58.47 v -49.19 h 104.1 v 117.57 c -13.9,12.8 -48.84,31.59 -93.05,31.59 -79.15,0.01 -131.55,-59.18 -131.55,-139.56 z"
   id="path12310" /><path
   class="st10"
   d="m 1398.07,1757.97 c -12.12,-12.8 -28.88,-37.19 -28.88,-37.19 0,0 3.56,29.99 3.56,49.59 v 113.97 h -46.7 V 1610 h 4.99 l 122.28,128.77 c 11.77,12.4 28.52,37.19 28.52,37.19 0,0 -3.21,-30.79 -3.21,-49.59 V 1612.4 h 46.7 v 274.33 h -4.99 z"
   id="path12312" /><path
   class="st10"
   d="m 1682.2,1610 h 4.28 l 110.87,274.33 h -52.41 l -11.41,-30.79 h -98.4 l -11.41,30.79 h -48.13 z m 33.51,196.75 -17.47,-47.19 c -7.13,-19.2 -14.62,-48.79 -14.62,-48.79 0,0 -7.13,29.59 -14.26,48.79 l -17.47,47.19 z"
   id="path12314" /><path
   class="st10"
   d="m 1849.39,1612.4 h 49.91 v 222.75 h 109.8 v 49.19 h -159.71 z"
   id="path12316" /><path
   class="st10"
   d="m 2056.52,1830.75 40.64,-26.39 c 10.7,19.6 24.6,33.99 49.2,33.99 20.68,0 33.87,-11.6 33.87,-27.59 0,-19.2 -13.55,-25.99 -36.36,-37.19 l -12.48,-6 c -36.01,-17.2 -59.89,-38.79 -59.89,-84.38 0,-41.99 28.52,-73.98 73.08,-73.98 31.73,0 54.55,12.4 70.95,44.79 l -38.86,27.99 c -8.56,-17.2 -17.83,-23.99 -32.09,-23.99 -14.62,0 -23.89,10.4 -23.89,23.99 0,16.8 9.27,23.59 30.66,33.99 l 12.48,6 c 42.42,20.4 66.31,41.19 66.31,87.98 0,50.39 -35.29,77.98 -82.71,77.98 -46.35,0 -76.3,-24.8 -90.91,-57.19 z"
   id="path12318" />
</g><g
     id="g13174"
     inkscape:label="trafficlight"
     transform="matrix(1.1227548,0,0,1.1227548,-173.98599,-241.12944)"
     inkscape:export-filename="../Desktop/signals.svg"
     inkscape:export-xdpi="96"
     inkscape:export-ydpi="96"
     style="display:inline"><g
       id="g10781"
       inkscape:label="signals"
       transform="matrix(0.98364771,0,0,0.98364771,917.06264,230.51315)"><ellipse
         style="fill:none;stroke:#000000;stroke-width:56.6929;stroke-linecap:round;stroke-dasharray:none"
         id="path10397"
         cx="573.51178"
         cy="467.11777"
         rx="399.42822"
         ry="346.1236" /><ellipse
         style="fill:none;stroke:#000000;stroke-width:56.6929;stroke-linecap:round;stroke-dasharray:none"
         id="path10774"
         cx="573.51178"
         cy="472.15698"
         rx="271.05408"
         ry="220.01012" /><ellipse
         style="fill:none;stroke:#000000;stroke-width:56.6929;stroke-linecap:round;stroke-dasharray:none"
         id="path10776"
         cx="573.51178"
         cy="481.272"
         rx="125.787"
         ry="105.734" /></g><g
       id="g543"
       inkscape:label="trafficlight"
       transform="matrix(0.98364771,0,0,0.98364771,917.06264,230.51315)"><path
         id="rect528"
         style="display:inline;stroke:#f15a24;stroke-width:16;stroke-linecap:round;stroke-dasharray:none;stroke-opacity:1"
         d="m 466.30479,529.56262 c 58.39945,-17.18231 148.36676,-19.7237 214.39039,0 53.79774,16.07138 119.10578,53.12118 119.10578,119.10579 l -9.99996,444.35619 9.99996,444.3562 c 1.48457,65.9679 -67.23271,97.6193 -119.10578,119.1058 -66.02363,27.3479 -148.36676,27.3479 -214.39039,0 -51.87307,-21.4865 -119.10578,-53.1212 -119.10578,-119.1058 0,0 9.99999,-296.2 9.99999,-444.3562 0,-148.15623 -9.99999,-444.35619 -9.99999,-444.35619 0,-65.98461 65.24178,-103.2579 119.10578,-119.10579 z"
         sodipodi:nodetypes="ssscsaasass" /><path
         d="m 560.1,481.7286 c -19.3,4.4 -33.4,15.5 -41.5,32.6 -1.8,3.8 -3.6,8.9 -4,11.2 l -0.7,4.3 h 59.6 59.6 v -2.8 c -0.1,-7.7 -7,-20.3 -16.3,-29.4 -8.1,-8.1 -19.1,-13.8 -30.9,-16.2 -9.6,-2 -16.2,-1.9 -25.8,0.3 z"
         id="path188"
         style="fill:#000000;stroke:none;stroke-width:0.1"
         inkscape:label="path188" /></g><g
       id="g539"
       inkscape:label="lights"
       transform="matrix(0.98364771,0,0,0.98364771,917.06264,230.51315)"><circle
         style="fill:#b32b2b;fill-opacity:1;stroke-width:3.6728;stroke-linecap:round"
         id="path4756"
         cx="573.5"
         cy="801.65161"
         r="120"
         inkscape:label="red" /><circle
         style="fill:#f0a824;fill-opacity:1;stroke-width:3.6728;stroke-linecap:round"
         id="path4756-9"
         cx="573.5"
         cy="1103.1029"
         r="120"
         inkscape:label="orange" /><circle
         style="fill:#76b543;fill-opacity:1;stroke-width:3.6728;stroke-linecap:round"
         id="path4756-8"
         cx="573.5"
         cy="1410.9454"
         r="120"
         inkscape:label="green" /></g></g></g></svg>
