<?xml version="1.0" encoding="UTF-8" standalone="no"?>
<!-- Generator: Adobe Adobe Illustrator 24.2.0, SVG Export Plug-In . SVG Version: 6.00 Build 0)  -->

<svg
   version="1.1"
   x="0px"
   y="0px"
   width="2109.5664"
   height="717.88013"
   viewBox="0 0 2109.5664 717.88013"
   xml:space="preserve"
   id="svg12347"
   sodipodi:docname="Signals.svg"
   inkscape:version="1.2 (dc2aeda, 2022-05-15)"
   inkscape:export-filename="../Desktop/Signals.svg"
   inkscape:export-xdpi="96"
   inkscape:export-ydpi="96"
   xmlns:inkscape="http://www.inkscape.org/namespaces/inkscape"
   xmlns:sodipodi="http://sodipodi.sourceforge.net/DTD/sodipodi-0.dtd"
   xmlns="http://www.w3.org/2000/svg"
   xmlns:svg="http://www.w3.org/2000/svg"><defs
   id="defs12351" /><sodipodi:namedview
   id="namedview12349"
   pagecolor="#ffffff"
   bordercolor="#000000"
   borderopacity="0.25"
   inkscape:showpageshadow="2"
   inkscape:pageopacity="0.0"
   inkscape:pagecheckerboard="0"
   inkscape:deskcolor="#d1d1d1"
   showgrid="false"
   inkscape:zoom="0.19124081"
   inkscape:cx="985.66827"
   inkscape:cy="1511.1837"
   inkscape:window-width="1512"
   inkscape:window-height="836"
   inkscape:window-x="0"
   inkscape:window-y="38"
   inkscape:window-maximized="0"
   inkscape:current-layer="svg12347" />
<style
   type="text/css"
   id="style12274">
	.st0{display:none;}
	.st1{fill:#F15A24;stroke:#000000;stroke-miterlimit:10;}
	.st2{stroke:#000000;stroke-miterlimit:10;}
	.st3{fill:none;stroke:#000000;stroke-width:60;stroke-linecap:round;stroke-miterlimit:10;}
	.st4{fill:none;stroke:#000000;stroke-width:51;stroke-linecap:round;stroke-linejoin:round;stroke-miterlimit:10;}
	.st5{fill:none;stroke:#000000;stroke-width:71;stroke-linecap:round;stroke-miterlimit:10;}
	.st6{fill:none;stroke:#000000;stroke-width:101;stroke-linecap:round;stroke-miterlimit:10;}
	.st7{fill:none;stroke:#000000;stroke-width:149;stroke-linecap:round;stroke-miterlimit:10;}
	.st8{fill:none;stroke:#000000;stroke-width:100;stroke-linecap:round;stroke-miterlimit:10;}
	.st9{fill:none;}
	.st10{fill:#FFFFFF;stroke:#FFFFFF;stroke-width:16;stroke-miterlimit:10;}
	.st11{fill:#F15A24;stroke:#F15A24;stroke-width:67;stroke-miterlimit:10;}
	.st12{fill:#F15A24;}
	.st13{display:none;fill:#FFFFFF;stroke:#000000;stroke-width:67;stroke-miterlimit:10;}
	.st14{fill:#FFFFFF;stroke:#000000;stroke-width:67;stroke-miterlimit:10;}
	.st15{fill:#B32B2B;}
	.st16{fill:#F0A824;}
	.st17{fill:#76B543;}
</style>











<g
   id="g14945"
   inkscape:label="inline"
   style="display:inline"
   transform="translate(-417.96875,-1873.6914)"><g
     id="g13436"
     inkscape:label="trafficlight"
     transform="matrix(0.46063944,0,0,0.46063944,-70.501165,1725.5289)"
     inkscape:export-filename="../Desktop/signals.svg"
     inkscape:export-xdpi="96"
     inkscape:export-ydpi="96"><g
       id="g13420"
       inkscape:label="signals"
       transform="matrix(0.98364771,0,0,0.98364771,917.06264,230.51315)"><path
         id="ellipse13418"
         style="color:#000000;fill:#000000;stroke-linecap:round;-inkscape-stroke:none"
         d="m 573.51323,347.19177 c -82.34739,0 -154.13546,57.45851 -154.13546,134.07862 0,16.45203 3.62114,32.64736 10.20731,47.7519 9.74008,-4.04506 19.51113,-7.50972 28.95805,-10.2892 8.21579,-2.41726 17.04165,-4.54376 26.28984,-6.40112 -5.60953,-10.01476 -8.76328,-20.46278 -8.76328,-31.06158 0,-40.1702 40.85072,-77.38671 97.44354,-77.38671 56.59281,0 97.43923,37.21651 97.43923,77.38671 10e-6,10.58979 -3.15057,21.02855 -8.75035,31.03572 8.89457,1.83327 17.56009,3.95171 25.84586,6.42698 9.55543,2.85456 19.44466,6.3877 29.30289,10.51766 6.6496,-15.16811 10.29352,-31.4465 10.29352,-47.98036 0,-76.62011 -71.78376,-134.07862 -154.13115,-134.07862 z" /><path
         id="ellipse13416"
         style="color:#000000;fill:#000000;stroke-linecap:round;-inkscape-stroke:none"
         d="m 573.51323,223.79891 c -162.13334,0 -299.39986,107.97729 -299.39987,248.35905 0,52.08906 19.82657,102.65954 55.45049,144.18247 a 28.346451,28.346451 0 0 0 5.28469,2.68114 c 5.41887,-19.24686 16.3587,-35.6881 30.53139,-49.5149 -22.51217,-29.90835 -34.57465,-63.26972 -34.57465,-97.34871 0,-102.63422 105.44383,-191.66282 242.70795,-191.66282 137.26412,0 242.70363,89.0286 242.70364,191.66282 0,34.1939 -12.13972,67.66133 -34.7988,97.64182 14.15139,13.83834 25.06191,30.28647 30.42363,49.55801 a 28.346451,28.346451 0 0 0 5.34504,-2.69407 C 852.98145,575.08177 872.9131,524.38422 872.9131,472.15796 872.91309,331.7762 735.64657,223.79891 573.51323,223.79891 Z" /><path
         id="ellipse13414"
         style="color:#000000;fill:#000000;stroke-linecap:round;-inkscape-stroke:none"
         d="m 573.51323,92.647133 c -233.87278,0 -427.77568,165.634617 -427.77568,374.471827 0,122.1249 68.17628,235.90358 180.20546,305.45184 a 28.346451,28.346451 0 0 0 8.93139,1.46988 c -0.90724,-30.6246 -1.40286,-48.06774 -1.9699,-65.74831 -82.90624,-60.61589 -130.47503,-148.47132 -130.47503,-241.17341 0,-173.47959 163.76119,-317.77991 371.08376,-317.77991 99.42953,0 194.58103,34.4076 263.87259,94.45204 69.29155,60.04444 107.20686,140.19353 107.20686,223.32787 0,92.68238 -47.55055,180.5226 -130.44054,241.14324 l -1.4742,65.50692 a 28.346451,28.346451 0 0 0 8.82363,-1.46126 C 933.28959,702.73229 1001.2889,589.08281 1001.2889,467.11896 1001.2889,366.65829 955.03509,270.7257 874.5123,200.94887 793.98951,131.17203 685.95318,92.647133 573.51323,92.647133 Z" /></g><g
       id="g13426"
       inkscape:label="trafficlight"
       transform="matrix(0.98364771,0,0,0.98364771,917.06264,230.51315)"
       style="display:inline"><path
         id="path13422"
         style="display:inline;stroke:none;stroke-width:16.0006;stroke-linecap:round;stroke-dasharray:none;stroke-opacity:1"
         d="m 466.30479,529.56262 c 58.39945,-17.18231 148.36676,-19.7237 214.39039,0 53.79774,16.07138 119.10578,53.12118 119.10578,119.10579 l -9.99996,444.35619 9.99996,444.3562 c 1.48457,65.9679 -67.23271,97.6193 -119.10578,119.1058 -66.02363,27.3479 -148.36676,27.3479 -214.39039,0 -51.87307,-21.4865 -119.10578,-53.1212 -119.10578,-119.1058 0,0 9.99999,-296.2 9.99999,-444.3562 0,-148.15623 -9.99999,-444.35619 -9.99999,-444.35619 0,-65.98461 65.24178,-103.2579 119.10578,-119.10579 z"
         sodipodi:nodetypes="ssscsaasass" /><path
         d="m 560.1,481.7286 c -19.3,4.4 -33.4,15.5 -41.5,32.6 -1.8,3.8 -3.6,8.9 -4,11.2 l -0.7,4.3 h 59.6 59.6 v -2.8 c -0.1,-7.7 -7,-20.3 -16.3,-29.4 -8.1,-8.1 -19.1,-13.8 -30.9,-16.2 -9.6,-2 -16.2,-1.9 -25.8,0.3 z"
         id="path13424"
         style="display:inline;fill:#000000;stroke:none;stroke-width:0.1"
         inkscape:label="path188" /></g><g
       id="g13434"
       inkscape:label="lights"
       transform="matrix(0.98364771,0,0,0.98364771,917.06264,230.51315)"><circle
         style="fill:#b32b2b;fill-opacity:1;stroke-width:3.6728;stroke-linecap:round"
         id="circle13428"
         cx="573.5"
         cy="801.65161"
         r="120"
         inkscape:label="red" /><circle
         style="fill:#f0a824;fill-opacity:1;stroke-width:3.6728;stroke-linecap:round"
         id="circle13430"
         cx="573.5"
         cy="1103.1029"
         r="120"
         inkscape:label="orange" /><circle
         style="fill:#76b543;fill-opacity:1;stroke-width:3.6728;stroke-linecap:round"
         id="circle13432"
         cx="573.5"
         cy="1410.9454"
         r="120"
         inkscape:label="green" /></g></g><g
     id="g13452"
     inkscape:label="name"
     transform="matrix(1.0916875,0,0,1.0916875,-562.7896,426.13437)">
	<path
   class="st10"
   d="m 1308.0179,1819.0146 40.64,-26.39 c 10.69,19.6 24.6,33.99 49.2,33.99 20.68,0 33.87,-11.6 33.87,-27.59 0,-19.2 -13.55,-25.99 -36.36,-37.19 l -12.48,-6 c -36.01,-17.2 -59.89,-38.79 -59.89,-84.38 0,-41.99 28.52,-73.98 73.08,-73.98 31.73,0 54.55,12.4 70.94,44.79 l -38.86,27.99 c -8.56,-17.2 -17.83,-23.99 -32.09,-23.99 -14.62,0 -23.89,10.4 -23.89,23.99 0,16.8 9.27,23.59 30.66,33.99 l 12.48,6 c 42.42,20.4 66.31,41.19 66.31,87.98 0,50.39 -35.29,77.98 -82.71,77.98 -46.33,0 -76.28,-24.8 -90.9,-57.19 z"
   id="path13438"
   style="fill:#000000;stroke:#000000;stroke-opacity:1" /><path
   class="st10"
   d="m 1534.0379,1600.6646 h 49.91 v 271.93 h -49.91 z"
   id="path13440"
   style="fill:#000000;stroke:#000000;stroke-opacity:1" /><path
   class="st10"
   d="m 1637.7779,1736.6346 c 0,-80.38 50.62,-139.17 123.71,-139.17 39.57,0 68.09,12 88.06,37.59 l -33.87,37.59 c -12.12,-14 -26.02,-24.79 -54.19,-24.79 -43.85,0 -72.37,37.99 -72.37,88.78 0,50.79 29.23,89.58 80.21,89.58 15.69,0 34.94,-3.2 47.42,-10 v -39.99 h -58.47 v -49.19 h 104.1 v 117.57 c -13.9,12.8 -48.84,31.59 -93.05,31.59 -79.15,0.01 -131.55,-59.18 -131.55,-139.56 z"
   id="path13442"
   style="fill:#000000;stroke:#000000;stroke-opacity:1" /><path
   class="st10"
   d="m 1990.7079,1746.2346 c -12.12,-12.8 -28.88,-37.19 -28.88,-37.19 0,0 3.56,29.99 3.56,49.59 v 113.97 h -46.7 v -274.34 h 4.99 l 122.28,128.77 c 11.77,12.4 28.52,37.19 28.52,37.19 0,0 -3.21,-30.79 -3.21,-49.59 v -113.97 h 46.7 v 274.33 h -4.99 z"
   id="path13444"
   style="fill:#000000;stroke:#000000;stroke-opacity:1" /><path
   class="st10"
   d="m 2274.8379,1598.2646 h 4.28 l 110.87,274.33 h -52.41 l -11.41,-30.79 h -98.4 l -11.41,30.79 h -48.13 z m 33.51,196.75 -17.47,-47.19 c -7.13,-19.2 -14.62,-48.79 -14.62,-48.79 0,0 -7.13,29.59 -14.26,48.79 l -17.47,47.19 z"
   id="path13446"
   style="fill:#000000;stroke:#000000;stroke-opacity:1" /><path
   class="st10"
   d="m 2442.0279,1600.6646 h 49.91 v 222.75 h 109.8 v 49.19 h -159.71 z"
   id="path13448"
   style="fill:#000000;stroke:#000000;stroke-opacity:1" /><path
   class="st10"
   d="m 2649.1579,1819.0146 40.64,-26.39 c 10.7,19.6 24.6,33.99 49.2,33.99 20.68,0 33.87,-11.6 33.87,-27.59 0,-19.2 -13.55,-25.99 -36.36,-37.19 l -12.48,-6 c -36.01,-17.2 -59.89,-38.79 -59.89,-84.38 0,-41.99 28.52,-73.98 73.08,-73.98 31.73,0 54.55,12.4 70.95,44.79 l -38.86,27.99 c -8.56,-17.2 -17.83,-23.99 -32.09,-23.99 -14.62,0 -23.89,10.4 -23.89,23.99 0,16.8 9.27,23.59 30.66,33.99 l 12.48,6 c 42.42,20.4 66.31,41.19 66.31,87.98 0,50.39 -35.29,77.98 -82.71,77.98 -46.35,0 -76.3,-24.8 -90.91,-57.19 z"
   id="path13450"
   style="fill:#000000;stroke:#000000;stroke-opacity:1" />
</g></g></svg>
